<svg width="600" height="186" viewBox="0 0 600 186" fill="none" xmlns="http://www.w3.org/2000/svg">
<g clip-path="url(#clip0_3_2)">
<path d="M155.67 0H47.6518C21.3058 0 0 21.3058 0 47.6518C0 73.9977 21.3058 95.3035 47.6518 95.3035H155.67C182.016 95.3035 203.322 73.9977 203.322 47.6518C203.436 21.3058 182.016 0 155.67 0ZM153.837 82.3597C134.708 82.3597 119.129 66.7812 119.129 47.6518C119.129 28.5223 134.708 12.9439 153.837 12.9439C172.967 12.9439 188.545 28.5223 188.545 47.6518C188.545 66.7812 172.967 82.3597 153.837 82.3597Z" fill="#8DE8FE"/>
<path d="M153.837 82.3597C134.708 82.3597 119.129 66.7812 119.129 47.6518C119.129 28.5223 134.708 12.9439 153.837 12.9439C172.967 12.9439 188.545 28.5223 188.545 47.6518C188.545 66.7812 172.967 82.3597 153.837 82.3597Z" fill="#0C131F"/>
<path d="M260.252 0C233.906 0 212.6 21.3058 212.6 47.6518C212.6 73.9977 233.906 95.3035 260.252 95.3035C286.598 95.3035 307.904 73.9977 307.904 47.6518C307.904 21.3058 286.598 0 260.252 0Z" fill="white"/>
<path d="M252.234 171.134C255.556 171.134 257.503 173.654 257.503 176.289C257.503 178.121 256.93 179.954 254.066 182.016C250.401 184.651 244.674 185.796 240.206 185.796C224.742 185.796 212.486 175.601 212.486 158.305C212.486 141.466 225.086 130.813 240.321 130.813C245.246 130.813 250.286 131.959 253.952 134.479C256.93 136.541 257.617 138.603 257.617 140.092C257.617 143.07 255.441 145.704 252.005 145.704C250.859 145.704 249.599 145.361 247.652 143.986C245.934 142.726 243.414 141.581 240.321 141.581C230.813 141.581 226.002 150.172 226.002 158.19C226.002 166.323 230.584 174.685 240.321 174.685C243.184 174.685 245.704 173.998 247.995 172.509C249.599 171.592 251.088 171.134 252.234 171.134ZM292.898 185.796C277.205 185.796 264.719 174.456 264.719 158.076C264.719 141.695 277.32 130.813 292.898 130.813C308.477 130.813 321.077 141.695 321.077 158.076C321.077 174.456 308.477 185.796 292.898 185.796ZM292.898 141.466C282.589 141.466 277.892 150.057 277.892 158.076C277.892 166.208 282.703 174.914 292.898 174.914C303.093 174.914 307.904 166.208 307.904 158.076C307.904 149.943 303.093 141.466 292.898 141.466ZM332.188 138.259C332.188 132.417 336.426 131.501 338.373 131.501C340.321 131.501 344.559 132.531 344.559 138.259V140.779H344.788C347.079 135.624 353.265 130.928 360.939 130.928C374.456 130.928 380.069 141.352 380.069 151.89V178.121C380.069 184.307 375.716 185.338 373.54 185.338C371.363 185.338 367.01 184.307 367.01 178.121V155.67C367.01 149.485 365.636 141.81 357.274 141.81C349.026 141.81 345.132 148.912 345.132 155.899V178.121C345.132 184.307 340.779 185.338 338.603 185.338C336.426 185.338 332.073 184.307 332.073 178.121L332.188 138.259ZM392.898 138.259C392.898 132.417 397.136 131.501 399.084 131.501C401.031 131.501 405.269 132.531 405.269 138.259V140.779H405.498C407.789 135.624 413.975 130.928 421.65 130.928C435.166 130.928 440.779 141.352 440.779 151.89V178.121C440.779 184.307 436.426 185.338 434.25 185.338C432.073 185.338 427.721 184.307 427.721 178.121V155.67C427.721 149.485 426.346 141.81 417.984 141.81C409.737 141.81 405.842 148.912 405.842 155.899V178.121C405.842 184.307 401.489 185.338 399.313 185.338C397.136 185.338 392.784 184.307 392.784 178.121L392.898 138.259ZM464.376 162.428C464.948 169.759 471.592 175.143 479.152 175.143C484.536 175.143 487.858 173.425 491.065 170.676C492.898 169.187 494.044 168.843 495.533 168.843C498.396 168.843 500.687 170.905 500.687 173.998C500.687 175.029 500.229 176.976 498.511 178.694C493.471 183.505 487.629 185.682 479.267 185.682C463.23 185.682 451.317 175.372 451.317 158.534C451.317 141.81 463.116 130.699 478.809 130.699C491.409 130.699 501.489 137.801 503.551 153.15C503.666 154.181 503.78 154.983 503.78 155.899C503.78 160.481 501.26 162.428 496.907 162.428H464.376ZM490.951 153.15C490.951 146.392 487.171 140.55 478.694 140.55C471.02 140.55 464.834 145.819 464.261 153.15H490.951ZM551.661 171.134C554.983 171.134 556.93 173.654 556.93 176.289C556.93 178.121 556.357 179.954 553.494 182.016C549.828 184.651 544.101 185.796 539.633 185.796C524.17 185.796 511.913 175.601 511.913 158.305C511.913 141.466 524.513 130.813 539.748 130.813C544.674 130.813 549.714 131.959 553.379 134.479C556.357 136.541 557.045 138.603 557.045 140.092C557.045 143.07 554.868 145.704 551.432 145.704C550.286 145.704 549.026 145.361 547.079 143.986C545.361 142.726 542.841 141.581 539.748 141.581C530.241 141.581 525.43 150.172 525.43 158.19C525.43 166.323 530.011 174.685 539.748 174.685C542.612 174.685 545.132 173.998 547.423 172.509C549.141 171.592 550.516 171.134 551.661 171.134ZM589.92 185.338C576.174 185.338 573.196 176.861 573.196 166.896V142.726H568.958C564.032 142.726 563.116 139.29 563.116 137.572C563.116 135.853 564.032 132.417 568.958 132.417H573.196V123.368C573.196 117.411 577.434 116.38 579.611 116.38C581.787 116.38 586.025 117.411 586.025 123.368V132.302H594.158C599.084 132.302 600 135.739 600 137.457C600 139.175 599.084 142.612 594.158 142.612H586.025V166.896C586.025 171.936 587.743 174.685 590.951 174.685C591.524 174.685 592.211 174.57 593.013 174.456C593.929 174.341 594.044 174.341 594.502 174.341C597.709 174.341 599.427 176.747 599.427 179.152C599.427 181.214 598.282 182.932 596.335 183.963C594.502 184.88 592.211 185.338 589.92 185.338Z" fill="white"/>
<path d="M76.9845 144.523C76.349 141.841 75.2888 139.506 73.8014 137.522C72.3808 135.534 70.4996 133.973 68.1623 132.84C65.818 131.703 62.9513 131.14 59.57 131.14C55.7634 131.14 52.4737 131.915 49.7084 133.475C48.5953 134.074 47.5574 134.817 46.5949 135.703C45.7241 136.503 44.4486 136.866 43.1609 136.811C41.8735 136.756 40.6036 136.284 39.7505 135.454C36.7874 132.569 32.604 131.14 27.23 131.14C23.0012 131.14 19.5949 132.091 17.0304 134.015C14.6789 135.762 12.928 137.769 11.785 140.039V135.6C11.785 133.833 10.3523 132.4 8.58499 132.4H2.61499C0.847679 132.4 -0.58501 133.833 -0.58501 135.6V180C-0.58501 181.767 0.847678 183.2 2.61499 183.2H9.21499C10.9823 183.2 12.415 181.767 12.415 180V155.49C12.415 153.827 12.6229 152.235 13.0379 150.713C13.4513 149.197 14.1045 147.857 14.9967 146.689C15.9578 145.523 17.1242 144.597 18.4977 143.91C19.9339 143.226 21.6873 142.88 23.765 142.88C26.8037 142.88 28.9357 143.81 30.2164 145.63L30.2164 145.63L30.2185 145.633C31.5153 147.408 32.175 149.846 32.175 152.97V180C32.175 181.767 33.6077 183.2 35.375 183.2H41.975C43.7423 183.2 45.175 181.767 45.175 180V155.7C45.175 154.106 45.3482 152.547 45.6943 151.022C46.109 149.434 46.7293 148.058 47.5528 146.891C48.4453 145.656 49.5417 144.697 50.8431 144.012L50.8432 144.012L50.8464 144.01C52.2109 143.26 53.8561 142.88 55.79 142.88C57.6598 142.88 59.1645 143.192 60.3164 143.802C61.4759 144.416 62.3944 145.266 63.0754 146.356L63.0753 146.356L63.0786 146.361C63.7613 147.385 64.2426 148.619 64.5185 150.067L64.5189 150.069C64.7961 151.455 64.935 152.912 64.935 154.44V180C64.935 181.767 66.3677 183.2 68.135 183.2H74.735C76.5023 183.2 77.935 181.767 77.935 180V152.97C77.935 149.946 77.6186 147.13 76.9845 144.523ZM76.9845 144.523C76.9844 144.523 76.9844 144.523 76.9843 144.523L76.79 144.57L76.9846 144.524C76.9846 144.524 76.9845 144.523 76.9845 144.523ZM115.839 182.552L115.843 182.551C118.649 181.218 120.967 179.123 122.795 176.272C122.797 176.27 122.798 176.27 122.799 176.27C122.801 176.27 122.802 176.271 122.802 176.273V180C122.802 181.767 124.235 183.2 126.002 183.2H131.342C133.11 183.2 134.542 181.767 134.542 180V154.02C134.542 152.826 134.507 151.458 134.437 149.916C134.367 148.293 134.12 146.636 133.697 144.945C133.343 143.246 132.706 141.585 131.789 139.961C130.934 138.254 129.69 136.763 128.061 135.487C126.428 134.21 124.376 133.185 121.91 132.41C119.433 131.561 116.4 131.14 112.817 131.14C108.806 131.14 104.899 131.773 101.099 133.04L101.098 133.041C98.2924 133.993 95.7444 135.403 93.4548 137.27C92.0779 138.392 92.1174 140.428 93.3512 141.662L95.7942 144.105C97.0297 145.34 98.9932 145.32 100.407 144.363C101.522 143.608 102.743 142.969 104.071 142.446L104.071 142.446L104.075 142.444C106.359 141.475 108.817 140.99 111.452 140.99C114.78 140.99 117.5 141.787 119.628 143.366L119.632 143.368C121.739 144.863 122.802 147.141 122.802 150.24C122.802 150.883 122.281 151.405 121.637 151.405H119.852C117.749 151.405 115.506 151.475 113.123 151.615C110.735 151.686 108.348 151.931 105.96 152.353C103.638 152.705 101.387 153.267 99.2054 154.042C97.0164 154.818 95.0719 155.878 93.3736 157.223C91.7391 158.502 90.4262 160.135 89.4341 162.119C88.4362 164.044 87.9423 166.387 87.9423 169.14C87.9423 171.688 88.4734 173.928 89.5425 175.852C90.6057 177.766 91.9891 179.363 93.6923 180.64L93.6954 180.642C95.4648 181.916 97.4457 182.871 99.6365 183.507L99.6382 183.508C101.896 184.142 104.189 184.46 106.517 184.46C109.903 184.46 113.011 183.825 115.839 182.552ZM107.617 161.879L107.618 161.879L107.622 161.877C109.568 161.321 111.618 160.974 113.775 160.835C115.942 160.695 117.897 160.625 119.642 160.625C120.982 160.625 122.067 161.711 122.067 163.05V163.26C122.067 166.788 121.031 169.568 118.976 171.624C116.999 173.601 113.876 174.61 109.562 174.61C108.528 174.61 107.493 174.507 106.458 174.3C105.43 174.025 104.507 173.614 103.688 173.069C102.87 172.523 102.189 171.877 101.645 171.13C101.18 170.329 100.942 169.353 100.942 168.195C100.942 166.431 101.583 165.094 102.856 164.156L102.856 164.156L102.861 164.152C104.166 163.122 105.75 162.363 107.617 161.879ZM146.915 137.516L159.415 154.233C160.159 155.227 160.158 156.593 159.415 157.587L144.082 178.083C142.504 180.193 144.009 183.2 146.644 183.2H154.043C155.063 183.2 156.021 182.714 156.624 181.891L166.525 168.375C167.647 166.844 169.934 166.849 171.049 168.384L180.859 181.881C181.461 182.71 182.423 183.2 183.447 183.2H191.258C193.893 183.2 195.399 180.193 193.82 178.083L178.48 157.576C177.74 156.587 177.736 155.229 178.47 154.235L190.832 137.501C192.392 135.389 190.884 132.4 188.258 132.4H181.353C180.325 132.4 179.36 132.893 178.759 133.726L171.267 144.099C170.124 145.682 167.751 145.638 166.668 144.013L159.876 133.825C159.282 132.935 158.283 132.4 157.213 132.4H149.478C146.843 132.4 145.337 135.406 146.915 137.516Z" fill="#8DE8FE" stroke="#8DE8FE" stroke-width="0.4"/>
</g>
<defs>
<clipPath id="clip0_3_2">
<rect width="600" height="185.796" fill="white"/>
</clipPath>
</defs>
</svg>
