<svg aria-hidden="true" viewBox="0 0 60 60" fill="none"
    xmlns="http://www.w3.org/2000/svg" class="css-1fhpde">
    <rect width="60" height="59.9999" rx="8" fill="white"></rect>
    <path d="M8.12544 23.8284H8.76019V19.7171H10.2749V19.1201H6.61072V19.7171H8.12544V23.8284Z" fill="#9B2743"></path>
    <path d="M11.3184 23.2076C11.53 23.4338 11.7944 23.612 12.107 23.7468C12.4196 23.8767 12.7754 23.9441 13.1745 23.9441C13.3188 23.9441 13.4679 23.9393 13.6314 23.9201C13.79 23.9056 13.9487 23.8767 14.1074 23.8382C14.2661 23.7997 14.42 23.7564 14.5642 23.7034C14.7133 23.6505 14.8431 23.5879 14.9585 23.5157V21.1953H13.2803V21.7922H14.3238V23.1065C14.1844 23.1883 14.0112 23.2461 13.8093 23.2894C13.6073 23.3327 13.3957 23.352 13.1697 23.352C12.9052 23.352 12.6648 23.3039 12.4436 23.2076C12.2224 23.1113 12.0301 22.9813 11.8666 22.8128C11.7031 22.6443 11.5733 22.4469 11.4819 22.2159C11.3905 21.9896 11.3424 21.7393 11.3424 21.4745C11.3424 21.2097 11.3809 20.9738 11.4675 20.7475C11.554 20.5165 11.6742 20.3191 11.8281 20.1506C11.982 19.9821 12.1695 19.8473 12.3859 19.7462C12.6023 19.6451 12.8475 19.597 13.1168 19.597C13.3525 19.597 13.5833 19.6355 13.7997 19.7077C14.016 19.7799 14.218 19.9099 14.4152 20.0976L14.8672 19.6114C14.6796 19.4236 14.4488 19.2744 14.1747 19.1637C13.9006 19.053 13.5448 19 13.112 19C12.7514 19 12.4244 19.0626 12.1214 19.1878C11.8185 19.3129 11.5636 19.4862 11.3472 19.7077C11.1309 19.9291 10.9626 20.1891 10.8423 20.4924C10.7221 20.7909 10.6596 21.1182 10.6596 21.4697C10.6596 21.8018 10.7125 22.1196 10.8279 22.418C10.9385 22.7165 11.102 22.9813 11.3184 23.2076Z" fill="#9B2743"></path>
    <path d="M17.8918 23.8284L19.7431 19.1201H19.0459L17.6129 22.9522H17.5985L16.2136 19.1201H15.4778L17.2907 23.8284H17.8918Z" fill="#9B2743"></path>
    <path d="M14.8431 25.3164C12.1358 25.3164 9.93347 27.5213 9.93347 30.2268V36.9811H12.5686L12.5734 30.2268C12.5734 28.9703 13.5929 27.9497 14.8479 27.9497C16.103 27.9497 17.1224 28.9703 17.1224 30.2268V36.9811H19.7527V30.2268C19.7527 27.5165 17.5504 25.3164 14.8431 25.3164Z" fill="#9B2743"></path>
    <path d="M6.35585 34.8048C6.68284 34.6123 7.06272 34.5015 7.47146 34.5015C7.95713 34.5015 8.40434 34.6604 8.7698 34.9252V25.8457H6.76939C6.35104 27.5932 6.12503 29.4178 6.11542 31.2905C6.11542 31.3338 6.12023 34.9637 6.12023 34.9637C6.19716 34.9059 6.2741 34.853 6.35585 34.8048Z" fill="#9B2743"></path>
    <path d="M7.47145 35.5078C6.65879 35.5078 6 36.1674 6 36.9809C6 37.7945 6.65879 38.4493 7.47145 38.4493C8.28411 38.4493 8.9429 37.7897 8.9429 36.9761C8.93809 36.1674 8.2793 35.5078 7.47145 35.5078Z" fill="#9B2743"></path>
    <path d="M47.4266 32.5951C47.4266 33.8516 46.4071 34.8722 45.1521 34.8722C43.897 34.8722 42.8776 33.8516 42.8776 32.5951V25.8457H40.2424V32.6C40.2424 35.3103 42.4448 37.5104 45.1473 37.5104C47.8497 37.5104 50.0569 35.3055 50.0569 32.6V25.8457H47.4218L47.4266 32.5951Z" fill="#9B2743"></path>
    <path d="M52.5286 27.3139C53.3412 27.3139 54 26.6544 54 25.8408C54 25.0272 53.3412 24.3677 52.5286 24.3677C51.7159 24.3677 51.0571 25.0272 51.0571 25.8408C51.0619 26.6544 51.7159 27.3139 52.5286 27.3139Z" fill="#9B2743"></path>
    <path d="M53.6394 28.0217C53.3124 28.2142 52.9325 28.325 52.5286 28.325C52.0429 28.325 51.5957 28.1661 51.2302 27.9013V36.9808H53.2306C53.649 35.2333 53.8702 33.4087 53.8798 31.536C53.8798 31.4927 53.875 27.8628 53.875 27.8628C53.798 27.9206 53.7211 27.9735 53.6394 28.0217Z" fill="#9B2743"></path>
    <path d="M30 22.3315C24.9942 22.3315 20.9261 26.4091 20.9261 31.4158C20.9261 36.4226 24.9942 40.5002 30 40.5002C35.0058 40.5002 39.074 36.4226 39.074 31.4158C39.074 26.4091 35.001 22.3315 30 22.3315ZM30 37.5106C26.6436 37.5106 23.9123 34.7761 23.9123 31.4158C23.9075 28.0508 26.6436 25.3163 30 25.3163C33.3565 25.3163 36.0926 28.0508 36.0926 31.4158C36.0926 34.7809 33.3613 37.5106 30 37.5106Z" fill="#9B2743"></path>
</svg>